<?xml version="1.0" encoding="UTF-8"?>
<svg width="252px" height="219px" viewBox="0 0 252 219" version="1.1" xmlns="http://www.w3.org/2000/svg" xmlns:xlink="http://www.w3.org/1999/xlink">
    <title>logo42</title>
    <g id="logo42" stroke="none" stroke-width="1" fill="none" fill-rule="evenodd">
        <g transform="translate(-0.000000, 0.000000)">
            <rect id="Rectangle" fill="#EB1000" x="0" y="0" width="252" height="219" rx="4"></rect>
            <rect id="Rectangle" fill="#FFFFFF" x="98" y="52" width="43" height="167"></rect>
            <polygon id="Path-2" fill="#FFFFFF" points="64 134.006702 94.4245283 61 120 0 71 0 0 168 64 168 103.849057 168 103.849057 134.006702"></polygon>
            <path d="M253.279762,219.77686 L130.279762,219.77686 L168.172678,176.972324 C178.169383,165.646038 186.004638,156.048113 191.678444,148.178551 C197.35225,140.308988 201.573831,133.652957 204.343189,128.210456 C207.112546,122.767954 208.834951,118.355116 209.510404,114.971939 C210.185857,111.588763 210.523584,108.720418 210.523584,106.366904 C210.523584,103.866295 210.152085,101.439234 209.409086,99.0857198 C208.666088,96.7322058 207.551591,94.6361074 206.065594,92.7974246 C204.579597,90.9587418 202.789647,89.4877955 200.695742,88.3845858 C198.601838,87.2813761 196.136434,86.7297713 193.299531,86.7297713 C187.895907,86.7297713 183.674325,88.6420014 180.634787,92.4664617 C177.595248,96.2909219 176.023564,101.071497 176.023564,106.808188 C176.023564,108.426228 176.023564,110.307571 176.023564,113.86873 L133.319301,113.86873 C133.319301,104.160484 134.771525,95.3348068 137.675973,87.3916971 C140.580421,79.4485874 144.666912,72.6086873 149.935446,66.8719969 C155.203979,61.1353066 161.45192,56.7224678 168.679268,53.6334807 C175.906615,50.5444936 183.843189,49 192.488988,49 C200.999696,49 208.868724,50.4709462 216.096072,53.4128387 C223.323419,56.3547312 229.57136,60.4733807 234.839894,65.7687872 C240.108427,71.0641937 244.228691,77.3524889 247.200684,84.6336729 C250.172678,91.9148568 251.658675,99.8211929 251.658675,108.352681 C251.658675,117.472548 250.004149,124.540263 246.288823,132.599654 C242.095586,140.072816 237.442115,148.178551 230.182617,157.335191 L209.935772,185.183356 L253.279762,185.183356 L253.279762,219.77686 Z" id="Path" fill="#FFFFFF" fill-rule="nonzero"></path>
        </g>
    </g>
</svg>